<?xml version="1.0" encoding="UTF-8"?>
<svg xmlns="http://www.w3.org/2000/svg" xmlns:xlink="http://www.w3.org/1999/xlink" width="200px" height="183px" viewBox="0 0 199 183" version="1.1">
<g id="surface1">
<path style=" stroke:none;fill-rule:nonzero;fill:rgb(100%,94.509804%,85.490196%);fill-opacity:1;" d="M 56.625 86.746094 C 56.625 98.558594 66.171875 108.136719 77.949219 108.136719 L 109.929688 108.136719 C 113.199219 108.136719 115.851562 105.476562 115.851562 102.195312 L 115.851562 61.792969 C 115.851562 55.230469 110.550781 49.910156 104.007812 49.910156 L 62.550781 49.910156 C 59.277344 49.910156 56.625 52.570312 56.625 55.851562 Z M 56.625 86.746094 "/>
<path style=" stroke:none;fill-rule:nonzero;fill:rgb(83.529412%,83.921569%,85.882353%);fill-opacity:1;" d="M 114.175781 103.3125 C 112.566406 103.675781 111 104.34375 109.570312 105.28125 C 105.851562 107.660156 103.6875 111.054688 104.738281 112.863281 C 105.789062 114.671875 109.65625 114.207031 113.375 111.828125 C 114.824219 110.925781 116.109375 109.773438 117.152344 108.441406 C 117.636719 107.796875 117.726562 106.992188 117.375 106.394531 L 116.011719 104.042969 C 115.664062 103.441406 114.941406 103.15625 114.175781 103.3125 Z M 114.175781 103.3125 "/>
<path style=" stroke:none;fill-rule:nonzero;fill:rgb(83.529412%,83.921569%,85.882353%);fill-opacity:1;" d="M 104.832031 71.238281 C 103.667969 71.5 102.53125 71.984375 101.492188 72.664062 C 98.796875 74.386719 97.226562 76.847656 97.988281 78.160156 C 98.75 79.46875 101.554688 79.132812 104.25 77.410156 C 105.300781 76.753906 106.234375 75.917969 106.992188 74.953125 C 107.339844 74.484375 107.40625 73.902344 107.152344 73.46875 L 106.164062 71.765625 C 105.910156 71.332031 105.390625 71.121094 104.832031 71.238281 Z M 104.832031 71.238281 "/>
<path style=" stroke:none;fill-rule:nonzero;fill:rgb(0.784314%,60.784314%,77.254902%);fill-opacity:1;" d="M 89.652344 72.582031 C 89.394531 72.550781 89.117188 72.621094 88.878906 72.773438 L 82.542969 76.824219 C 82.011719 77.164062 81.800781 77.8125 82.070312 78.277344 C 82.128906 78.382812 82.214844 78.476562 82.316406 78.546875 L 97.929688 89.339844 L 119.054688 75.835938 Z M 89.652344 72.582031 "/>
<path style=" stroke:none;fill-rule:nonzero;fill:rgb(88.235294%,90.196078%,91.372549%);fill-opacity:1;" d="M 156.433594 71.054688 L 98.945312 107.359375 L 64.9375 120.9375 L 47.589844 124.394531 L 45.683594 121.140625 L 141.503906 61.789062 C 144.359375 60.015625 147.542969 58.921875 150.726562 58.628906 C 152.121094 58.507812 153.5 58.554688 154.828125 58.769531 C 156.003906 58.945312 157.121094 59.292969 158.144531 59.792969 C 159.285156 60.363281 161.457031 60.429688 162.164062 61.558594 C 162.164062 61.558594 163.824219 66.757812 156.433594 71.054688 Z M 156.433594 71.054688 "/>
<path style=" stroke:none;fill-rule:nonzero;fill:rgb(0.784314%,60.784314%,77.254902%);fill-opacity:1;" d="M 99.707031 102.554688 L 74.839844 142.328125 C 74.527344 142.886719 74.714844 143.511719 75.25 143.726562 C 75.582031 143.855469 75.984375 143.804688 76.324219 143.589844 L 82.652344 139.558594 C 83.871094 138.785156 84.949219 137.800781 85.820312 136.667969 L 134.050781 79.785156 Z M 99.707031 102.554688 "/>
<path style=" stroke:none;fill-rule:nonzero;fill:rgb(0.784314%,60.784314%,77.254902%);fill-opacity:1;" d="M 36.953125 101.226562 C 36.539062 101.085938 36.042969 101.160156 35.628906 101.425781 L 30.394531 104.769531 C 29.683594 105.222656 29.398438 106.097656 29.761719 106.722656 C 29.828125 106.84375 29.917969 106.945312 30.027344 107.03125 L 44.6875 118.8125 L 60.101562 109.152344 Z M 36.953125 101.226562 "/>
<path style=" stroke:none;fill-rule:nonzero;fill:rgb(0.784314%,60.784314%,77.254902%);fill-opacity:1;" d="M 49.601562 120.9375 L 41.710938 132.019531 C 41.59375 132.179688 41.621094 132.378906 41.769531 132.46875 C 41.878906 132.53125 42.027344 132.519531 42.144531 132.441406 L 47.035156 129.332031 C 47.074219 129.304688 47.109375 129.277344 47.136719 129.242188 L 58.664062 115.179688 Z M 49.601562 120.9375 "/>
<path style=" stroke:none;fill-rule:nonzero;fill:rgb(0.784314%,60.784314%,77.254902%);fill-opacity:1;" d="M 153.882812 59.246094 C 152.515625 59.027344 151.097656 58.980469 149.660156 59.105469 C 148.261719 61.066406 147.367188 63.269531 147.066406 65.496094 C 147.046875 65.945312 147.40625 66.265625 147.871094 66.214844 C 148.015625 66.199219 148.160156 66.148438 148.289062 66.066406 L 157.300781 60.3125 C 156.246094 59.789062 155.09375 59.429688 153.882812 59.246094 Z M 153.882812 59.246094 "/>
<path style=" stroke:none;fill-rule:nonzero;fill:rgb(83.529412%,83.921569%,85.882353%);fill-opacity:1;" d="M 134.246094 69.832031 L 140.128906 66.105469 L 145.609375 75.453125 L 139.726562 79.183594 Z M 134.246094 69.832031 "/>
<path style=" stroke:none;fill-rule:nonzero;fill:rgb(22.745098%,33.333333%,41.568627%);fill-opacity:1;" d="M 130.542969 73.53125 C 129.832031 73.980469 129.550781 74.847656 129.910156 75.464844 L 130.492188 76.464844 C 130.875 77.066406 131.753906 77.171875 132.449219 76.699219 C 133.113281 76.25 133.378906 75.4375 133.058594 74.832031 L 132.476562 73.832031 C 132.117188 73.214844 131.25 73.078125 130.542969 73.53125 Z M 130.542969 73.53125 "/>
<path style=" stroke:none;fill-rule:nonzero;fill:rgb(22.745098%,33.333333%,41.568627%);fill-opacity:1;" d="M 125.253906 76.824219 C 124.546875 77.273438 124.261719 78.140625 124.621094 78.757812 L 125.207031 79.757812 C 125.589844 80.359375 126.464844 80.46875 127.160156 79.996094 C 127.824219 79.546875 128.089844 78.730469 127.773438 78.128906 L 127.1875 77.128906 C 126.828125 76.511719 125.964844 76.375 125.253906 76.824219 Z M 125.253906 76.824219 "/>
<path style=" stroke:none;fill-rule:nonzero;fill:rgb(22.745098%,33.333333%,41.568627%);fill-opacity:1;" d="M 119.964844 80.121094 C 119.257812 80.570312 118.972656 81.4375 119.332031 82.054688 L 119.917969 83.054688 C 120.300781 83.65625 121.175781 83.761719 121.871094 83.289062 C 122.535156 82.839844 122.804688 82.023438 122.484375 81.421875 L 121.902344 80.421875 C 121.539062 79.804688 120.671875 79.667969 119.964844 80.121094 Z M 119.964844 80.121094 "/>
<path style=" stroke:none;fill-rule:nonzero;fill:rgb(22.745098%,33.333333%,41.568627%);fill-opacity:1;" d="M 114.675781 83.414062 C 113.96875 83.867188 113.6875 84.730469 114.046875 85.347656 L 114.628906 86.347656 C 115.011719 86.949219 115.886719 87.054688 116.585938 86.585938 C 117.246094 86.136719 117.515625 85.320312 117.195312 84.71875 L 116.613281 83.714844 C 116.25 83.097656 115.386719 82.964844 114.675781 83.414062 Z M 114.675781 83.414062 "/>
<path style=" stroke:none;fill-rule:nonzero;fill:rgb(22.745098%,33.333333%,41.568627%);fill-opacity:1;" d="M 109.386719 86.710938 C 108.679688 87.160156 108.398438 88.027344 108.757812 88.644531 L 109.339844 89.644531 C 109.699219 90.261719 110.566406 90.398438 111.273438 89.945312 C 111.984375 89.496094 112.265625 88.628906 111.90625 88.011719 L 111.324219 87.011719 C 110.964844 86.394531 110.097656 86.257812 109.390625 86.707031 C 109.390625 86.707031 109.390625 86.707031 109.386719 86.710938 Z M 109.386719 86.710938 "/>
<path style=" stroke:none;fill-rule:nonzero;fill:rgb(22.745098%,33.333333%,41.568627%);fill-opacity:1;" d="M 104.101562 90.003906 C 103.390625 90.457031 103.109375 91.320312 103.46875 91.9375 L 104.050781 92.9375 C 104.414062 93.554688 105.277344 93.691406 105.988281 93.242188 C 106.695312 92.789062 106.980469 91.925781 106.621094 91.308594 L 106.035156 90.308594 C 105.675781 89.691406 104.8125 89.554688 104.101562 90.003906 Z M 104.101562 90.003906 "/>
<path style=" stroke:none;fill-rule:nonzero;fill:rgb(22.745098%,33.333333%,41.568627%);fill-opacity:1;" d="M 98.8125 93.296875 C 98.101562 93.75 97.820312 94.613281 98.179688 95.234375 L 98.765625 96.234375 C 99.125 96.851562 99.992188 96.984375 100.699219 96.53125 C 101.40625 96.082031 101.6875 95.21875 101.332031 94.601562 L 100.746094 93.601562 C 100.386719 92.984375 99.519531 92.847656 98.8125 93.296875 Z M 98.8125 93.296875 "/>
<path style=" stroke:none;fill-rule:nonzero;fill:rgb(22.745098%,33.333333%,41.568627%);fill-opacity:1;" d="M 93.523438 96.59375 C 92.816406 97.042969 92.53125 97.910156 92.890625 98.527344 L 93.476562 99.527344 C 93.835938 100.144531 94.703125 100.277344 95.410156 99.828125 C 96.117188 99.378906 96.398438 98.511719 96.042969 97.898438 L 95.457031 96.894531 C 95.097656 96.277344 94.234375 96.144531 93.523438 96.59375 Z M 93.523438 96.59375 "/>
<path style=" stroke:none;fill-rule:nonzero;fill:rgb(22.745098%,33.333333%,41.568627%);fill-opacity:1;" d="M 88.234375 99.886719 C 87.527344 100.339844 87.246094 101.203125 87.605469 101.820312 L 88.1875 102.824219 C 88.546875 103.4375 89.414062 103.574219 90.121094 103.121094 C 90.828125 102.671875 91.113281 101.808594 90.753906 101.191406 L 90.171875 100.191406 C 89.8125 99.574219 88.945312 99.4375 88.234375 99.886719 Z M 88.234375 99.886719 "/>
<path style=" stroke:none;fill-rule:nonzero;fill:rgb(22.745098%,33.333333%,41.568627%);fill-opacity:1;" d="M 82.945312 103.183594 C 82.238281 103.632812 81.953125 104.5 82.3125 105.117188 L 82.898438 106.117188 C 83.257812 106.734375 84.125 106.867188 84.832031 106.417969 C 85.539062 105.96875 85.824219 105.105469 85.464844 104.488281 L 84.878906 103.488281 C 84.519531 102.867188 83.65625 102.734375 82.945312 103.183594 Z M 82.945312 103.183594 "/>
<path style=" stroke:none;fill-rule:nonzero;fill:rgb(22.745098%,33.333333%,41.568627%);fill-opacity:1;" d="M 77.660156 106.476562 C 76.949219 106.925781 76.667969 107.792969 77.027344 108.410156 L 77.609375 109.410156 C 77.972656 110.027344 78.839844 110.160156 79.546875 109.710938 C 80.253906 109.261719 80.535156 108.398438 80.175781 107.78125 L 79.59375 106.78125 C 79.234375 106.164062 78.367188 106.027344 77.660156 106.476562 Z M 77.660156 106.476562 "/>
</g>
</svg>
