<svg width="168" height="154" viewBox="0 0 168 154" fill="none" xmlns="http://www.w3.org/2000/svg">
<path d="M47.8052 73C47.8052 82.9411 55.864 91 65.8052 91L92.8052 91C95.5666 91 97.8052 88.7614 97.8052 86L97.8052 52C97.8052 46.4772 93.328 42 87.8052 42L52.8052 42C50.0437 42 47.8052 44.2386 47.8052 47L47.8052 73Z" fill="#FFF1DA"/>
<path d="M96.3891 86.9413C95.0307 87.2456 93.7077 87.8091 92.5022 88.5965C89.3614 90.5978 87.5341 93.4546 88.421 94.9767C89.308 96.4988 92.5731 96.1095 95.7138 94.1082C96.9356 93.3486 98.021 92.3779 98.9032 91.2559C99.3125 90.7138 99.386 90.0383 99.0908 89.5334L97.9386 87.556C97.6454 87.0495 97.0374 86.8086 96.3891 86.9413Z" fill="#D5D6DB"/>
<path d="M88.5021 59.9482C87.5171 60.169 86.5577 60.5778 85.6834 61.1488C83.4066 62.5996 82.0808 64.671 82.7234 65.7738C83.366 66.8766 85.7345 66.5941 88.0111 65.1434C88.897 64.5923 89.6839 63.8881 90.3237 63.0744C90.6202 62.6815 90.6733 62.1922 90.4593 61.8261L89.6251 60.3943C89.4128 60.0271 88.9722 59.8521 88.5021 59.9482Z" fill="#D5D6DB"/>
<path d="M75.688 61.0786C75.4687 61.0541 75.2349 61.1126 75.0322 61.2421L69.684 64.6503C69.2366 64.9345 69.0576 65.4818 69.2845 65.873C69.3364 65.9626 69.4075 66.0392 69.4937 66.0982L82.6753 75.1831L100.509 63.8184L75.688 61.0786Z" fill="#029BC5"/>
<path d="M132.065 59.794L83.5329 90.3461L54.8201 101.772L40.177 104.682L38.566 101.945L119.461 51.9985C121.872 50.5036 124.558 49.586 127.246 49.3389C128.424 49.237 129.587 49.2762 130.708 49.455C131.702 49.6057 132.645 49.8964 133.508 50.3185C134.472 50.7967 136.307 50.8519 136.901 51.8047C136.903 51.8032 138.305 56.1776 132.065 59.794Z" fill="#E1E6E9"/>
<path d="M84.1762 86.3036L63.1809 119.774C62.9187 120.244 63.0744 120.77 63.5283 120.949C63.8068 121.059 64.1477 121.016 64.4341 120.834L69.7781 117.444C70.806 116.791 71.7161 115.963 72.4523 115.009L113.169 67.1404L84.1762 86.3036Z" fill="#029BC5"/>
<path d="M31.1966 85.1861C30.8464 85.0664 30.4296 85.1285 30.0778 85.3525L25.6603 88.1659C25.0584 88.549 24.8185 89.2854 25.1244 89.8111C25.1827 89.911 25.2584 89.999 25.3491 90.0714L37.7259 99.9838L50.7389 91.8557L31.1966 85.1861Z" fill="#029BC5"/>
<path d="M41.8743 101.771L35.2128 111.1C35.1152 111.234 35.1381 111.402 35.2641 111.476C35.3549 111.529 35.4789 111.519 35.5797 111.452L39.708 108.836C39.74 108.815 39.7691 108.79 39.7931 108.761L49.5266 96.926L41.8743 101.771Z" fill="#029BC5"/>
<path d="M129.911 49.8572C128.757 49.6718 127.559 49.6322 126.346 49.7388C125.165 51.3899 124.411 53.2446 124.157 55.118C124.139 55.4943 124.442 55.7652 124.835 55.723C124.957 55.7098 125.079 55.6669 125.188 55.5981L132.796 50.7538C131.906 50.3152 130.935 50.0134 129.911 49.8572Z" fill="#029BC5"/>
<path d="M113.332 58.7654L118.299 55.6284L122.926 63.4974L117.959 66.6344L113.332 58.7654Z" fill="#D5D6DB"/>
<path d="M110.207 61.8776C109.608 62.2567 109.369 62.9855 109.673 63.5053L110.165 64.3472C110.489 64.8537 111.228 64.9428 111.816 64.5461C112.376 64.1683 112.602 63.4816 112.332 62.9746L111.84 62.1326C111.536 61.6133 110.805 61.499 110.207 61.8776Z" fill="#3A556A"/>
<path d="M105.742 64.6502C105.144 65.0293 104.904 65.7581 105.208 66.2778L105.701 67.1198C106.025 67.6263 106.764 67.7153 107.352 67.3186C107.912 66.9408 108.137 66.2542 107.868 65.7471L107.375 64.9052C107.071 64.3861 106.341 64.2718 105.742 64.6502Z" fill="#3A556A"/>
<path d="M101.276 67.4235C100.679 67.8031 100.44 68.531 100.744 69.0503L101.236 69.8922C101.56 70.3987 102.299 70.4877 102.887 70.091C103.447 69.7133 103.673 69.0266 103.403 68.5196L102.911 67.6776C102.607 67.1579 101.875 67.0442 101.276 67.4235Z" fill="#3A556A"/>
<path d="M96.8121 70.1959C96.2142 70.5756 95.9758 71.3035 96.2794 71.8228L96.7717 72.6647C97.0956 73.1712 97.8348 73.2603 98.4231 72.8636C98.9829 72.4858 99.2084 71.7991 98.9386 71.2921L98.4463 70.4501C98.1422 69.9305 97.4106 69.8167 96.8121 70.1959Z" fill="#3A556A"/>
<path d="M92.3481 72.9686C91.7499 73.3484 91.5113 74.0766 91.8151 74.5961L92.3077 75.4384C92.6114 75.9577 93.3427 76.0714 93.941 75.6924C94.5394 75.3134 94.7783 74.5853 94.4746 74.066L93.982 73.2237C93.6791 72.7039 92.9481 72.5894 92.3494 72.9678C92.3489 72.9681 92.3486 72.9682 92.3481 72.9686Z" fill="#3A556A"/>
<path d="M87.8837 75.741C87.2855 76.1208 87.047 76.8491 87.3508 77.3686L87.8434 78.2109C88.147 78.7302 88.8783 78.8439 89.4767 78.4649C90.075 78.0859 90.3139 77.3577 90.0103 76.8385L89.5177 75.9961C89.2148 75.4764 88.4838 75.3619 87.885 75.7402C87.8845 75.7405 87.884 75.7409 87.8837 75.741Z" fill="#3A556A"/>
<path d="M83.4191 78.5135C82.8209 78.8933 82.5824 79.6215 82.8862 80.141L83.3788 80.9833C83.6832 81.5021 84.4148 81.6147 85.0125 81.2352C85.6092 80.8563 85.8476 80.1297 85.5454 79.6111L85.0528 78.7688C84.7492 78.2491 84.018 78.1348 83.4191 78.5135Z" fill="#3A556A"/>
<path d="M78.9545 81.2859C78.3563 81.6658 78.1178 82.394 78.4216 82.9135L78.9142 83.7558C79.2186 84.2746 79.9502 84.3872 80.5479 84.0077C81.1446 83.6289 81.383 82.9022 81.0808 82.3835L80.5882 81.5412C80.2846 81.0215 79.5534 80.9072 78.9545 81.2859Z" fill="#3A556A"/>
<path d="M74.4903 84.0584C73.8921 84.4382 73.6535 85.1664 73.9573 85.6859L74.4499 86.5282C74.7543 87.047 75.486 87.1596 76.0837 86.7801C76.6804 86.4013 76.9188 85.6746 76.6165 85.156L76.1239 84.3137C75.8201 83.7942 75.0889 83.6799 74.4903 84.0584Z" fill="#3A556A"/>
<path d="M70.0245 86.8316C69.4261 87.2106 69.1872 87.9388 69.4909 88.458L69.4915 88.4591L69.9841 89.3015C70.2885 89.8203 71.0201 89.9328 71.6179 89.5534C72.2146 89.1745 72.453 88.4478 72.1507 87.9292L71.6581 87.0869C71.3546 86.5672 70.6233 86.4529 70.0245 86.8316Z" fill="#3A556A"/>
<path d="M65.5612 89.6033C64.9629 89.9823 64.724 90.7105 65.0276 91.2297L65.0283 91.2308L65.5209 92.0732C65.8253 92.5919 66.5569 92.7045 67.1546 92.325C67.7514 91.9462 67.9898 91.2196 67.6875 90.7009L67.1949 89.8586C66.8911 89.3391 66.1599 89.2248 65.5612 89.6033Z" fill="#3A556A"/>
</svg>
